<?xml version="1.0" encoding="UTF-8"?>
<svg version="1.1" xmlns="http://www.w3.org/2000/svg" width="16" height="16">
<path d="M0 0 C3 0.125 3 0.125 4 1.125 C3.91062197 2.65019276 3.75462854 4.17181929 3.5625 5.6875 C3.46066406 6.51378906 3.35882813 7.34007812 3.25390625 8.19140625 C3.17011719 8.82949219 3.08632812 9.46757812 3 10.125 C4.32 10.455 5.64 10.785 7 11.125 C6.67 12.775 6.34 14.425 6 16.125 C2.04 16.125 -1.92 16.125 -6 16.125 C-6.33 14.475 -6.66 12.825 -7 11.125 C-5.68 10.795 -4.36 10.465 -3 10.125 C-3.08378906 9.48691406 -3.16757813 8.84882813 -3.25390625 8.19140625 C-3.35574219 7.36511719 -3.45757812 6.53882813 -3.5625 5.6875 C-3.66691406 4.86378906 -3.77132813 4.04007812 -3.87890625 3.19140625 C-3.91886719 2.50949219 -3.95882813 1.82757812 -4 1.125 C-3 0.125 -3 0.125 0 0 Z " fill="#808080" transform="translate(8,-0.125)"/>
</svg>
