<?xml version="1.0" encoding="UTF-8"?>
<svg version="1.1" xmlns="http://www.w3.org/2000/svg" width="16" height="16">
<path d="M0 0 C5.42158488 1.6757626 5.42158488 1.6757626 7.4375 5.0625 C7.76568438 8.79626986 7.61668056 12.2997083 7.4375 16.0625 C2.1575 16.0625 -3.1225 16.0625 -8.5625 16.0625 C-9.16770173 6.01615122 -9.16770173 6.01615122 -6.5 1.8125 C-3.5625 0.0625 -3.5625 0.0625 0 0 Z M-1.5625 2.0625 C-2.8825 3.0525 -4.2025 4.0425 -5.5625 5.0625 C-5.2325 6.0525 -4.9025 7.0425 -4.5625 8.0625 C-1.9225 8.0625 0.7175 8.0625 3.4375 8.0625 C3.7675 7.0725 4.0975 6.0825 4.4375 5.0625 C2.4575 4.0725 0.4775 3.0825 -1.5625 2.0625 Z M-6.5625 9.0625 C-5.5625 11.0625 -5.5625 11.0625 -5.5625 11.0625 Z M4.4375 9.0625 C5.4375 11.0625 5.4375 11.0625 5.4375 11.0625 Z M-2.5625 10.0625 C-4.0475 12.0425 -4.0475 12.0425 -5.5625 14.0625 C-2.2625 14.0625 1.0375 14.0625 4.4375 14.0625 C3.4475 12.7425 2.4575 11.4225 1.4375 10.0625 C0.1175 10.0625 -1.2025 10.0625 -2.5625 10.0625 Z " fill="#828282" transform="translate(8.5625,-0.0625)"/>
</svg>
