<?xml version="1.0" encoding="UTF-8"?>
<svg version="1.1" xmlns="http://www.w3.org/2000/svg" width="16" height="16">
<path d="M0 0 C3.3 0 6.6 0 10 0 C10.33 1.98 10.66 3.96 11 6 C11.66 6 12.32 6 13 6 C13 6.66 13 7.32 13 8 C11.35 8.33 9.7 8.66 8 9 C8 10.65 8 12.3 8 14 C6.02 14 4.04 14 2 14 C2 13.34 2 12.68 2 12 C1.01 11.67 0.02 11.34 -1 11 C-1 10.01 -1 9.02 -1 8 C-1.66 8 -2.32 8 -3 8 C-3 7.34 -3 6.68 -3 6 C-2.34 6 -1.68 6 -1 6 C-0.67 4.02 -0.34 2.04 0 0 Z " fill="#808080" transform="translate(3,1)"/>
</svg>
